G04 #@! TF.GenerationSoftware,KiCad,Pcbnew,(5.1.8)-1*
G04 #@! TF.CreationDate,2021-08-31T14:43:48+02:00*
G04 #@! TF.ProjectId,fanboard3,66616e62-6f61-4726-9433-2e6b69636164,rev?*
G04 #@! TF.SameCoordinates,Original*
G04 #@! TF.FileFunction,Soldermask,Top*
G04 #@! TF.FilePolarity,Negative*
%FSLAX46Y46*%
G04 Gerber Fmt 4.6, Leading zero omitted, Abs format (unit mm)*
G04 Created by KiCad (PCBNEW (5.1.8)-1) date 2021-08-31 14:43:48*
%MOMM*%
%LPD*%
G01*
G04 APERTURE LIST*
%ADD10R,1.800000X2.500000*%
%ADD11R,1.700000X1.700000*%
%ADD12O,1.700000X1.700000*%
%ADD13R,1.800000X3.600000*%
%ADD14O,1.800000X3.600000*%
%ADD15R,2.000000X3.800000*%
%ADD16R,2.000000X1.500000*%
%ADD17R,0.800000X1.800000*%
%ADD18R,1.750000X0.450000*%
%ADD19R,2.500000X2.000000*%
%ADD20R,1.600000X1.000000*%
%ADD21R,1.524000X1.524000*%
%ADD22C,1.524000*%
%ADD23C,1.500000*%
%ADD24C,3.000000*%
%ADD25R,2.000000X2.600000*%
%ADD26O,2.000000X2.600000*%
%ADD27R,3.600000X1.800000*%
%ADD28O,3.600000X1.800000*%
%ADD29C,2.700000*%
G04 APERTURE END LIST*
D10*
X242850000Y-122400000D03*
X242850000Y-126400000D03*
D11*
X248350000Y-122650000D03*
D12*
X250890000Y-122650000D03*
X248350000Y-125190000D03*
X250890000Y-125190000D03*
X248350000Y-127730000D03*
X250890000Y-127730000D03*
X248350000Y-130270000D03*
X250890000Y-130270000D03*
X248350000Y-132810000D03*
X250890000Y-132810000D03*
X248350000Y-135350000D03*
X250890000Y-135350000D03*
X248350000Y-137890000D03*
X250890000Y-137890000D03*
X248350000Y-140430000D03*
X250890000Y-140430000D03*
D13*
X261600000Y-103500000D03*
D14*
X257790000Y-103500000D03*
X253980000Y-103500000D03*
X250170000Y-103500000D03*
X246360000Y-103500000D03*
X242550000Y-103500000D03*
X238740000Y-103500000D03*
X234930000Y-103500000D03*
X231120000Y-103500000D03*
X227310000Y-103500000D03*
X223500000Y-103500000D03*
X219690000Y-103500000D03*
X215880000Y-103500000D03*
X212070000Y-103500000D03*
D15*
X232100000Y-124400000D03*
D16*
X238400000Y-124400000D03*
X238400000Y-122100000D03*
X238400000Y-126700000D03*
D17*
X239850000Y-111150000D03*
X236650000Y-111150000D03*
X234450000Y-111150000D03*
X232250000Y-111150000D03*
X232250000Y-118150000D03*
X234450000Y-118150000D03*
X236650000Y-118150000D03*
X239850000Y-118150000D03*
D18*
X231500000Y-129975000D03*
X231500000Y-130625000D03*
X231500000Y-131275000D03*
X231500000Y-131925000D03*
X231500000Y-132575000D03*
X231500000Y-133225000D03*
X231500000Y-133875000D03*
X231500000Y-134525000D03*
X231500000Y-135175000D03*
X231500000Y-135825000D03*
X238700000Y-135825000D03*
X238700000Y-135175000D03*
X238700000Y-134525000D03*
X238700000Y-133875000D03*
X238700000Y-133225000D03*
X238700000Y-132575000D03*
X238700000Y-131925000D03*
X238700000Y-131275000D03*
X238700000Y-130625000D03*
X238700000Y-129975000D03*
D19*
X242100000Y-130400000D03*
X242100000Y-134400000D03*
X247100000Y-111900000D03*
X247100000Y-115900000D03*
X251100000Y-115900000D03*
X251100000Y-111900000D03*
X255850000Y-144150000D03*
X255850000Y-148150000D03*
X251600000Y-144150000D03*
X251600000Y-148150000D03*
X247600000Y-144150000D03*
X247600000Y-148150000D03*
D20*
X243350000Y-115900000D03*
X243350000Y-112900000D03*
D21*
X210100000Y-147400000D03*
X210100000Y-128848000D03*
X212640000Y-147400000D03*
X212640000Y-128848000D03*
D22*
X220768000Y-147400000D03*
X220768000Y-128848000D03*
X223308000Y-147400000D03*
X223308000Y-128848000D03*
D21*
X228600000Y-124400000D03*
X210048000Y-124400000D03*
X228600000Y-121860000D03*
X210048000Y-121860000D03*
D22*
X228600000Y-113732000D03*
X210048000Y-113732000D03*
X228600000Y-111192000D03*
X210048000Y-111192000D03*
D11*
X227500000Y-130900000D03*
D12*
X227500000Y-133440000D03*
D23*
X238210000Y-139200000D03*
X235670000Y-139200000D03*
X233640000Y-139200000D03*
X231100000Y-139200000D03*
D24*
X241260000Y-141870000D03*
X227540000Y-141870000D03*
D25*
X254980000Y-138650000D03*
D26*
X257520000Y-138650000D03*
X260060000Y-138650000D03*
X262600000Y-138650000D03*
D25*
X255050000Y-130400000D03*
D26*
X257590000Y-130400000D03*
X260130000Y-130400000D03*
X262670000Y-130400000D03*
D25*
X255050000Y-122150000D03*
D26*
X257590000Y-122150000D03*
X260130000Y-122150000D03*
X262670000Y-122150000D03*
D25*
X255100000Y-113900000D03*
D26*
X257640000Y-113900000D03*
X260180000Y-113900000D03*
X262720000Y-113900000D03*
D27*
X203350000Y-104100000D03*
D28*
X203350000Y-109180000D03*
D11*
X208370000Y-98770000D03*
D12*
X208370000Y-96230000D03*
X210910000Y-98770000D03*
X210910000Y-96230000D03*
X213450000Y-98770000D03*
X213450000Y-96230000D03*
X215990000Y-98770000D03*
X215990000Y-96230000D03*
X218530000Y-98770000D03*
X218530000Y-96230000D03*
X221070000Y-98770000D03*
X221070000Y-96230000D03*
X223610000Y-98770000D03*
X223610000Y-96230000D03*
X226150000Y-98770000D03*
X226150000Y-96230000D03*
X228690000Y-98770000D03*
X228690000Y-96230000D03*
X231230000Y-98770000D03*
X231230000Y-96230000D03*
X233770000Y-98770000D03*
X233770000Y-96230000D03*
X236310000Y-98770000D03*
X236310000Y-96230000D03*
X238850000Y-98770000D03*
X238850000Y-96230000D03*
X241390000Y-98770000D03*
X241390000Y-96230000D03*
X243930000Y-98770000D03*
X243930000Y-96230000D03*
X246470000Y-98770000D03*
X246470000Y-96230000D03*
X249010000Y-98770000D03*
X249010000Y-96230000D03*
X251550000Y-98770000D03*
X251550000Y-96230000D03*
X254090000Y-98770000D03*
X254090000Y-96230000D03*
X256630000Y-98770000D03*
X256630000Y-96230000D03*
D29*
X261500000Y-146500000D03*
X203500000Y-146500000D03*
X261500000Y-97500000D03*
X203500000Y-97500000D03*
M02*
