%FSLAX45Y45*%
G04 Gerber Fmt 4.5, Leading zero omitted, Abs format (unit mm)*
G04 Created by KiCad (PCBNEW (5.1.8)-1) date 2021-08-31 14:44:27*
%MOMM*%
%LPD*%
G01*
G04 APERTURE LIST*
%TA.AperFunction,Profile*%
%ADD10C,0.100000*%
%TD*%
%ADD11C,0.200000*%
%ADD12C,0.300000*%
G04 APERTURE END LIST*
D10*
X24400000Y-14600000D02*
X24400000Y-13100000D01*
X24600000Y-13100000D02*
X24600000Y-14600000D01*
X24600000Y-13100000D02*
G75*
G03*
X24400000Y-13100000I-100000J0D01*
G01*
X24400000Y-14600000D02*
G75*
G03*
X24600000Y-14600000I100000J0D01*
G01*
X20049913Y-13050000D02*
G75*
G03*
X20000000Y-13100000I87J-50000D01*
G01*
X20450000Y-13050000D02*
G75*
G03*
X20500000Y-13000000I0J50000D01*
G01*
X20000000Y-11300000D02*
G75*
G03*
X20050000Y-11350000I50000J0D01*
G01*
X20500000Y-11400000D02*
G75*
G03*
X20450000Y-11350000I-50000J0D01*
G01*
X20000000Y-9700000D02*
X20000000Y-11300000D01*
X26500000Y-9700000D02*
G75*
G03*
X26200000Y-9400000I-300000J0D01*
G01*
X26200000Y-15000000D02*
G75*
G03*
X26500000Y-14700000I0J300000D01*
G01*
X20000000Y-14700000D02*
G75*
G03*
X20300000Y-15000000I300000J0D01*
G01*
X20300000Y-9400000D02*
G75*
G03*
X20000000Y-9700000I0J-300000D01*
G01*
X26200000Y-9400000D02*
X20300000Y-9400000D01*
X20450000Y-13050000D02*
X20050000Y-13050000D01*
X20500000Y-11400000D02*
X20500000Y-13000000D01*
X20050000Y-11350000D02*
X20450000Y-11350000D01*
X26500000Y-14700000D02*
X26500000Y-9700000D01*
X20300000Y-15000000D02*
X26200000Y-15000000D01*
X20000000Y-13100000D02*
X20000000Y-14700000D01*
D11*
X20215000Y-9615000D02*
X20485000Y-9885000D01*
X20485000Y-9615000D02*
X20215000Y-9885000D01*
X20215000Y-14515000D02*
X20485000Y-14785000D01*
X20485000Y-14515000D02*
X20215000Y-14785000D01*
X26015000Y-14515000D02*
X26285000Y-14785000D01*
X26285000Y-14515000D02*
X26015000Y-14785000D01*
X26015000Y-9615000D02*
X26285000Y-9885000D01*
X26285000Y-9615000D02*
X26015000Y-9885000D01*
D12*
X20281428Y-15470714D02*
X20281428Y-15170714D01*
X20352857Y-15170714D01*
X20395714Y-15185000D01*
X20424286Y-15213571D01*
X20438571Y-15242143D01*
X20452857Y-15299286D01*
X20452857Y-15342143D01*
X20438571Y-15399286D01*
X20424286Y-15427857D01*
X20395714Y-15456429D01*
X20352857Y-15470714D01*
X20281428Y-15470714D01*
X20581428Y-15470714D02*
X20581428Y-15270714D01*
X20581428Y-15327857D02*
X20595714Y-15299286D01*
X20610000Y-15285000D01*
X20638571Y-15270714D01*
X20667143Y-15270714D01*
X20767143Y-15470714D02*
X20767143Y-15270714D01*
X20767143Y-15170714D02*
X20752857Y-15185000D01*
X20767143Y-15199286D01*
X20781428Y-15185000D01*
X20767143Y-15170714D01*
X20767143Y-15199286D01*
X20952857Y-15470714D02*
X20924286Y-15456429D01*
X20910000Y-15427857D01*
X20910000Y-15170714D01*
X21110000Y-15470714D02*
X21081428Y-15456429D01*
X21067143Y-15427857D01*
X21067143Y-15170714D01*
X21452857Y-15470714D02*
X21452857Y-15170714D01*
X21552857Y-15385000D01*
X21652857Y-15170714D01*
X21652857Y-15470714D01*
X21924286Y-15470714D02*
X21924286Y-15313571D01*
X21910000Y-15285000D01*
X21881428Y-15270714D01*
X21824286Y-15270714D01*
X21795714Y-15285000D01*
X21924286Y-15456429D02*
X21895714Y-15470714D01*
X21824286Y-15470714D01*
X21795714Y-15456429D01*
X21781428Y-15427857D01*
X21781428Y-15399286D01*
X21795714Y-15370714D01*
X21824286Y-15356429D01*
X21895714Y-15356429D01*
X21924286Y-15342143D01*
X22067143Y-15270714D02*
X22067143Y-15570714D01*
X22067143Y-15285000D02*
X22095714Y-15270714D01*
X22152857Y-15270714D01*
X22181428Y-15285000D01*
X22195714Y-15299286D01*
X22210000Y-15327857D01*
X22210000Y-15413571D01*
X22195714Y-15442143D01*
X22181428Y-15456429D01*
X22152857Y-15470714D01*
X22095714Y-15470714D01*
X22067143Y-15456429D01*
X22338571Y-15442143D02*
X22352857Y-15456429D01*
X22338571Y-15470714D01*
X22324286Y-15456429D01*
X22338571Y-15442143D01*
X22338571Y-15470714D01*
X22338571Y-15285000D02*
X22352857Y-15299286D01*
X22338571Y-15313571D01*
X22324286Y-15299286D01*
X22338571Y-15285000D01*
X22338571Y-15313571D01*
X19725000Y-15830000D02*
X19995000Y-16100000D01*
X19995000Y-15830000D02*
X19725000Y-16100000D01*
X20267143Y-15829286D02*
X20281428Y-15815000D01*
X20310000Y-15800714D01*
X20381428Y-15800714D01*
X20410000Y-15815000D01*
X20424286Y-15829286D01*
X20438571Y-15857857D01*
X20438571Y-15886429D01*
X20424286Y-15929286D01*
X20252857Y-16100714D01*
X20438571Y-16100714D01*
X20567143Y-16072143D02*
X20581428Y-16086429D01*
X20567143Y-16100714D01*
X20552857Y-16086429D01*
X20567143Y-16072143D01*
X20567143Y-16100714D01*
X20681428Y-15800714D02*
X20881428Y-15800714D01*
X20752857Y-16100714D01*
X21052857Y-15800714D02*
X21081428Y-15800714D01*
X21110000Y-15815000D01*
X21124286Y-15829286D01*
X21138571Y-15857857D01*
X21152857Y-15915000D01*
X21152857Y-15986429D01*
X21138571Y-16043571D01*
X21124286Y-16072143D01*
X21110000Y-16086429D01*
X21081428Y-16100714D01*
X21052857Y-16100714D01*
X21024286Y-16086429D01*
X21010000Y-16072143D01*
X20995714Y-16043571D01*
X20981428Y-15986429D01*
X20981428Y-15915000D01*
X20995714Y-15857857D01*
X21010000Y-15829286D01*
X21024286Y-15815000D01*
X21052857Y-15800714D01*
X21281428Y-16100714D02*
X21281428Y-15900714D01*
X21281428Y-15929286D02*
X21295714Y-15915000D01*
X21324286Y-15900714D01*
X21367143Y-15900714D01*
X21395714Y-15915000D01*
X21410000Y-15943571D01*
X21410000Y-16100714D01*
X21410000Y-15943571D02*
X21424286Y-15915000D01*
X21452857Y-15900714D01*
X21495714Y-15900714D01*
X21524286Y-15915000D01*
X21538571Y-15943571D01*
X21538571Y-16100714D01*
X21681428Y-16100714D02*
X21681428Y-15900714D01*
X21681428Y-15929286D02*
X21695714Y-15915000D01*
X21724286Y-15900714D01*
X21767143Y-15900714D01*
X21795714Y-15915000D01*
X21810000Y-15943571D01*
X21810000Y-16100714D01*
X21810000Y-15943571D02*
X21824286Y-15915000D01*
X21852857Y-15900714D01*
X21895714Y-15900714D01*
X21924286Y-15915000D01*
X21938571Y-15943571D01*
X21938571Y-16100714D01*
X22524286Y-15786429D02*
X22267143Y-16172143D01*
X22910000Y-15800714D02*
X22938571Y-15800714D01*
X22967143Y-15815000D01*
X22981428Y-15829286D01*
X22995714Y-15857857D01*
X23010000Y-15915000D01*
X23010000Y-15986429D01*
X22995714Y-16043571D01*
X22981428Y-16072143D01*
X22967143Y-16086429D01*
X22938571Y-16100714D01*
X22910000Y-16100714D01*
X22881428Y-16086429D01*
X22867143Y-16072143D01*
X22852857Y-16043571D01*
X22838571Y-15986429D01*
X22838571Y-15915000D01*
X22852857Y-15857857D01*
X22867143Y-15829286D01*
X22881428Y-15815000D01*
X22910000Y-15800714D01*
X23138571Y-16072143D02*
X23152857Y-16086429D01*
X23138571Y-16100714D01*
X23124286Y-16086429D01*
X23138571Y-16072143D01*
X23138571Y-16100714D01*
X23438571Y-16100714D02*
X23267143Y-16100714D01*
X23352857Y-16100714D02*
X23352857Y-15800714D01*
X23324286Y-15843571D01*
X23295714Y-15872143D01*
X23267143Y-15886429D01*
X23624286Y-15800714D02*
X23652857Y-15800714D01*
X23681428Y-15815000D01*
X23695714Y-15829286D01*
X23710000Y-15857857D01*
X23724286Y-15915000D01*
X23724286Y-15986429D01*
X23710000Y-16043571D01*
X23695714Y-16072143D01*
X23681428Y-16086429D01*
X23652857Y-16100714D01*
X23624286Y-16100714D01*
X23595714Y-16086429D01*
X23581428Y-16072143D01*
X23567143Y-16043571D01*
X23552857Y-15986429D01*
X23552857Y-15915000D01*
X23567143Y-15857857D01*
X23581428Y-15829286D01*
X23595714Y-15815000D01*
X23624286Y-15800714D01*
X23981428Y-15800714D02*
X23924286Y-15800714D01*
X23895714Y-15815000D01*
X23881428Y-15829286D01*
X23852857Y-15872143D01*
X23838571Y-15929286D01*
X23838571Y-16043571D01*
X23852857Y-16072143D01*
X23867143Y-16086429D01*
X23895714Y-16100714D01*
X23952857Y-16100714D01*
X23981428Y-16086429D01*
X23995714Y-16072143D01*
X24010000Y-16043571D01*
X24010000Y-15972143D01*
X23995714Y-15943571D01*
X23981428Y-15929286D01*
X23952857Y-15915000D01*
X23895714Y-15915000D01*
X23867143Y-15929286D01*
X23852857Y-15943571D01*
X23838571Y-15972143D01*
X24124286Y-15800714D02*
X24124286Y-15857857D01*
X24238571Y-15800714D02*
X24238571Y-15857857D01*
X24681428Y-16215000D02*
X24667143Y-16200714D01*
X24638571Y-16157857D01*
X24624286Y-16129286D01*
X24610000Y-16086429D01*
X24595714Y-16015000D01*
X24595714Y-15957857D01*
X24610000Y-15886429D01*
X24624286Y-15843571D01*
X24638571Y-15815000D01*
X24667143Y-15772143D01*
X24681428Y-15757857D01*
X24924286Y-15900714D02*
X24924286Y-16100714D01*
X24852857Y-15786429D02*
X24781428Y-16000714D01*
X24967143Y-16000714D01*
X25310000Y-16100714D02*
X25310000Y-15800714D01*
X25438571Y-16100714D02*
X25438571Y-15943571D01*
X25424286Y-15915000D01*
X25395714Y-15900714D01*
X25352857Y-15900714D01*
X25324286Y-15915000D01*
X25310000Y-15929286D01*
X25624286Y-16100714D02*
X25595714Y-16086429D01*
X25581428Y-16072143D01*
X25567143Y-16043571D01*
X25567143Y-15957857D01*
X25581428Y-15929286D01*
X25595714Y-15915000D01*
X25624286Y-15900714D01*
X25667143Y-15900714D01*
X25695714Y-15915000D01*
X25710000Y-15929286D01*
X25724286Y-15957857D01*
X25724286Y-16043571D01*
X25710000Y-16072143D01*
X25695714Y-16086429D01*
X25667143Y-16100714D01*
X25624286Y-16100714D01*
X25895714Y-16100714D02*
X25867143Y-16086429D01*
X25852857Y-16057857D01*
X25852857Y-15800714D01*
X26124286Y-16086429D02*
X26095714Y-16100714D01*
X26038571Y-16100714D01*
X26010000Y-16086429D01*
X25995714Y-16057857D01*
X25995714Y-15943571D01*
X26010000Y-15915000D01*
X26038571Y-15900714D01*
X26095714Y-15900714D01*
X26124286Y-15915000D01*
X26138571Y-15943571D01*
X26138571Y-15972143D01*
X25995714Y-16000714D01*
X26252857Y-16086429D02*
X26281428Y-16100714D01*
X26338571Y-16100714D01*
X26367143Y-16086429D01*
X26381428Y-16057857D01*
X26381428Y-16043571D01*
X26367143Y-16015000D01*
X26338571Y-16000714D01*
X26295714Y-16000714D01*
X26267143Y-15986429D01*
X26252857Y-15957857D01*
X26252857Y-15943571D01*
X26267143Y-15915000D01*
X26295714Y-15900714D01*
X26338571Y-15900714D01*
X26367143Y-15915000D01*
X26481428Y-16215000D02*
X26495714Y-16200714D01*
X26524286Y-16157857D01*
X26538571Y-16129286D01*
X26552857Y-16086429D01*
X26567143Y-16015000D01*
X26567143Y-15957857D01*
X26552857Y-15886429D01*
X26538571Y-15843571D01*
X26524286Y-15815000D01*
X26495714Y-15772143D01*
X26481428Y-15757857D01*
X27024286Y-16215000D02*
X27010000Y-16200714D01*
X26981428Y-16157857D01*
X26967143Y-16129286D01*
X26952857Y-16086429D01*
X26938571Y-16015000D01*
X26938571Y-15957857D01*
X26952857Y-15886429D01*
X26967143Y-15843571D01*
X26981428Y-15815000D01*
X27010000Y-15772143D01*
X27024286Y-15757857D01*
X27138571Y-15900714D02*
X27138571Y-16100714D01*
X27138571Y-15929286D02*
X27152857Y-15915000D01*
X27181428Y-15900714D01*
X27224286Y-15900714D01*
X27252857Y-15915000D01*
X27267143Y-15943571D01*
X27267143Y-16100714D01*
X27452857Y-16100714D02*
X27424286Y-16086429D01*
X27410000Y-16072143D01*
X27395714Y-16043571D01*
X27395714Y-15957857D01*
X27410000Y-15929286D01*
X27424286Y-15915000D01*
X27452857Y-15900714D01*
X27495714Y-15900714D01*
X27524286Y-15915000D01*
X27538571Y-15929286D01*
X27552857Y-15957857D01*
X27552857Y-16043571D01*
X27538571Y-16072143D01*
X27524286Y-16086429D01*
X27495714Y-16100714D01*
X27452857Y-16100714D01*
X27638571Y-15900714D02*
X27752857Y-15900714D01*
X27681428Y-15800714D02*
X27681428Y-16057857D01*
X27695714Y-16086429D01*
X27724286Y-16100714D01*
X27752857Y-16100714D01*
X28081428Y-15900714D02*
X28081428Y-16200714D01*
X28081428Y-15915000D02*
X28110000Y-15900714D01*
X28167143Y-15900714D01*
X28195714Y-15915000D01*
X28210000Y-15929286D01*
X28224286Y-15957857D01*
X28224286Y-16043571D01*
X28210000Y-16072143D01*
X28195714Y-16086429D01*
X28167143Y-16100714D01*
X28110000Y-16100714D01*
X28081428Y-16086429D01*
X28395714Y-16100714D02*
X28367143Y-16086429D01*
X28352857Y-16057857D01*
X28352857Y-15800714D01*
X28638571Y-16100714D02*
X28638571Y-15943571D01*
X28624286Y-15915000D01*
X28595714Y-15900714D01*
X28538571Y-15900714D01*
X28510000Y-15915000D01*
X28638571Y-16086429D02*
X28610000Y-16100714D01*
X28538571Y-16100714D01*
X28510000Y-16086429D01*
X28495714Y-16057857D01*
X28495714Y-16029286D01*
X28510000Y-16000714D01*
X28538571Y-15986429D01*
X28610000Y-15986429D01*
X28638571Y-15972143D01*
X28738571Y-15900714D02*
X28852857Y-15900714D01*
X28781428Y-15800714D02*
X28781428Y-16057857D01*
X28795714Y-16086429D01*
X28824286Y-16100714D01*
X28852857Y-16100714D01*
X29067143Y-16086429D02*
X29038571Y-16100714D01*
X28981428Y-16100714D01*
X28952857Y-16086429D01*
X28938571Y-16057857D01*
X28938571Y-15943571D01*
X28952857Y-15915000D01*
X28981428Y-15900714D01*
X29038571Y-15900714D01*
X29067143Y-15915000D01*
X29081428Y-15943571D01*
X29081428Y-15972143D01*
X28938571Y-16000714D01*
X29338571Y-16100714D02*
X29338571Y-15800714D01*
X29338571Y-16086429D02*
X29310000Y-16100714D01*
X29252857Y-16100714D01*
X29224286Y-16086429D01*
X29210000Y-16072143D01*
X29195714Y-16043571D01*
X29195714Y-15957857D01*
X29210000Y-15929286D01*
X29224286Y-15915000D01*
X29252857Y-15900714D01*
X29310000Y-15900714D01*
X29338571Y-15915000D01*
X29452857Y-16215000D02*
X29467143Y-16200714D01*
X29495714Y-16157857D01*
X29510000Y-16129286D01*
X29524286Y-16086429D01*
X29538571Y-16015000D01*
X29538571Y-15957857D01*
X29524286Y-15886429D01*
X29510000Y-15843571D01*
X29495714Y-15815000D01*
X29467143Y-15772143D01*
X29452857Y-15757857D01*
M02*
