%FSLAX45Y45*%
G04 Gerber Fmt 4.5, Leading zero omitted, Abs format (unit mm)*
G04 Created by KiCad (PCBNEW (5.1.8)-1) date 2021-08-31 14:44:27*
%MOMM*%
%LPD*%
G01*
G04 APERTURE LIST*
%TA.AperFunction,Profile*%
%ADD10C,0.100000*%
%TD*%
%ADD11C,0.200000*%
%ADD12C,0.300000*%
G04 APERTURE END LIST*
D10*
X24400000Y-14600000D02*
X24400000Y-13100000D01*
X24600000Y-13100000D02*
X24600000Y-14600000D01*
X24600000Y-13100000D02*
G75*
G03*
X24400000Y-13100000I-100000J0D01*
G01*
X24400000Y-14600000D02*
G75*
G03*
X24600000Y-14600000I100000J0D01*
G01*
X20049913Y-13050000D02*
G75*
G03*
X20000000Y-13100000I87J-50000D01*
G01*
X20450000Y-13050000D02*
G75*
G03*
X20500000Y-13000000I0J50000D01*
G01*
X20000000Y-11300000D02*
G75*
G03*
X20050000Y-11350000I50000J0D01*
G01*
X20500000Y-11400000D02*
G75*
G03*
X20450000Y-11350000I-50000J0D01*
G01*
X20000000Y-9700000D02*
X20000000Y-11300000D01*
X26500000Y-9700000D02*
G75*
G03*
X26200000Y-9400000I-300000J0D01*
G01*
X26200000Y-15000000D02*
G75*
G03*
X26500000Y-14700000I0J300000D01*
G01*
X20000000Y-14700000D02*
G75*
G03*
X20300000Y-15000000I300000J0D01*
G01*
X20300000Y-9400000D02*
G75*
G03*
X20000000Y-9700000I0J-300000D01*
G01*
X26200000Y-9400000D02*
X20300000Y-9400000D01*
X20450000Y-13050000D02*
X20050000Y-13050000D01*
X20500000Y-11400000D02*
X20500000Y-13000000D01*
X20050000Y-11350000D02*
X20450000Y-11350000D01*
X26500000Y-14700000D02*
X26500000Y-9700000D01*
X20300000Y-15000000D02*
X26200000Y-15000000D01*
X20000000Y-13100000D02*
X20000000Y-14700000D01*
D11*
X22920910Y-13115090D02*
X22950910Y-13145090D01*
X22950910Y-13115090D02*
X22920910Y-13145090D01*
X22998780Y-13099460D02*
X23028780Y-13129460D01*
X23028780Y-13099460D02*
X22998780Y-13129460D01*
X23000300Y-13560220D02*
X23030300Y-13590220D01*
X23030300Y-13560220D02*
X23000300Y-13590220D01*
X23282120Y-13298840D02*
X23312120Y-13328840D01*
X23312120Y-13298840D02*
X23282120Y-13328840D01*
X23357390Y-13136960D02*
X23387390Y-13166960D01*
X23387390Y-13136960D02*
X23357390Y-13166960D01*
X23474800Y-13111560D02*
X23504800Y-13141560D01*
X23504800Y-13111560D02*
X23474800Y-13141560D01*
X23625730Y-13142380D02*
X23655730Y-13172380D01*
X23655730Y-13142380D02*
X23625730Y-13172380D01*
X23651760Y-13027640D02*
X23681760Y-13057640D01*
X23681760Y-13027640D02*
X23651760Y-13057640D01*
X23680000Y-12190000D02*
X23710000Y-12220000D01*
X23710000Y-12190000D02*
X23680000Y-12220000D01*
X23986080Y-13212570D02*
X24016080Y-13242570D01*
X24016080Y-13212570D02*
X23986080Y-13242570D01*
X23990780Y-13037700D02*
X24020780Y-13067700D01*
X24020780Y-13037700D02*
X23990780Y-13067700D01*
X24011140Y-13112600D02*
X24041140Y-13142600D01*
X24041140Y-13112600D02*
X24011140Y-13142600D01*
X24520280Y-14841600D02*
X24550280Y-14871600D01*
X24550280Y-14841600D02*
X24520280Y-14871600D01*
X24729980Y-10682890D02*
X24759980Y-10712890D01*
X24759980Y-10682890D02*
X24729980Y-10712890D01*
X24776920Y-10738820D02*
X24806920Y-10768820D01*
X24806920Y-10738820D02*
X24776920Y-10768820D01*
X25153120Y-11360260D02*
X25183120Y-11390260D01*
X25183120Y-11360260D02*
X25153120Y-11390260D01*
X25262820Y-10892890D02*
X25292820Y-10922890D01*
X25292820Y-10892890D02*
X25262820Y-10922890D01*
X25377330Y-14841600D02*
X25407330Y-14871600D01*
X25407330Y-14841600D02*
X25377330Y-14871600D01*
X21048100Y-12884800D02*
G75*
G03*
X21048100Y-12884800I-38100J0D01*
G01*
X21048100Y-14740000D02*
G75*
G03*
X21048100Y-14740000I-38100J0D01*
G01*
X21302100Y-12884800D02*
G75*
G03*
X21302100Y-12884800I-38100J0D01*
G01*
X21302100Y-14740000D02*
G75*
G03*
X21302100Y-14740000I-38100J0D01*
G01*
X22114900Y-12884800D02*
G75*
G03*
X22114900Y-12884800I-38100J0D01*
G01*
X22114900Y-14740000D02*
G75*
G03*
X22114900Y-14740000I-38100J0D01*
G01*
X22368900Y-12884800D02*
G75*
G03*
X22368900Y-12884800I-38100J0D01*
G01*
X22368900Y-14740000D02*
G75*
G03*
X22368900Y-14740000I-38100J0D01*
G01*
X21042900Y-11119200D02*
G75*
G03*
X21042900Y-11119200I-38100J0D01*
G01*
X21042900Y-11373200D02*
G75*
G03*
X21042900Y-11373200I-38100J0D01*
G01*
X21042900Y-12186000D02*
G75*
G03*
X21042900Y-12186000I-38100J0D01*
G01*
X21042900Y-12440000D02*
G75*
G03*
X21042900Y-12440000I-38100J0D01*
G01*
X22898100Y-11119200D02*
G75*
G03*
X22898100Y-11119200I-38100J0D01*
G01*
X22898100Y-11373200D02*
G75*
G03*
X22898100Y-11373200I-38100J0D01*
G01*
X22898100Y-12186000D02*
G75*
G03*
X22898100Y-12186000I-38100J0D01*
G01*
X22898100Y-12440000D02*
G75*
G03*
X22898100Y-12440000I-38100J0D01*
G01*
X24835000Y-12215000D02*
X24835000Y-12315000D01*
X24785000Y-12265000D02*
X24885000Y-12265000D01*
X24835000Y-12469000D02*
X24835000Y-12569000D01*
X24785000Y-12519000D02*
X24885000Y-12519000D01*
X24835000Y-12723000D02*
X24835000Y-12823000D01*
X24785000Y-12773000D02*
X24885000Y-12773000D01*
X24835000Y-12977000D02*
X24835000Y-13077000D01*
X24785000Y-13027000D02*
X24885000Y-13027000D01*
X24835000Y-13231000D02*
X24835000Y-13331000D01*
X24785000Y-13281000D02*
X24885000Y-13281000D01*
X24835000Y-13485000D02*
X24835000Y-13585000D01*
X24785000Y-13535000D02*
X24885000Y-13535000D01*
X24835000Y-13739000D02*
X24835000Y-13839000D01*
X24785000Y-13789000D02*
X24885000Y-13789000D01*
X24835000Y-13993000D02*
X24835000Y-14093000D01*
X24785000Y-14043000D02*
X24885000Y-14043000D01*
X25089000Y-12215000D02*
X25089000Y-12315000D01*
X25039000Y-12265000D02*
X25139000Y-12265000D01*
X25089000Y-12469000D02*
X25089000Y-12569000D01*
X25039000Y-12519000D02*
X25139000Y-12519000D01*
X25089000Y-12723000D02*
X25089000Y-12823000D01*
X25039000Y-12773000D02*
X25139000Y-12773000D01*
X25089000Y-12977000D02*
X25089000Y-13077000D01*
X25039000Y-13027000D02*
X25139000Y-13027000D01*
X25089000Y-13231000D02*
X25089000Y-13331000D01*
X25039000Y-13281000D02*
X25139000Y-13281000D01*
X25089000Y-13485000D02*
X25089000Y-13585000D01*
X25039000Y-13535000D02*
X25139000Y-13535000D01*
X25089000Y-13739000D02*
X25089000Y-13839000D01*
X25039000Y-13789000D02*
X25139000Y-13789000D01*
X25089000Y-13993000D02*
X25089000Y-14093000D01*
X25039000Y-14043000D02*
X25139000Y-14043000D01*
X23110000Y-13870000D02*
X23110000Y-13970000D01*
X23060000Y-13920000D02*
X23160000Y-13920000D01*
X23364000Y-13870000D02*
X23364000Y-13970000D01*
X23314000Y-13920000D02*
X23414000Y-13920000D01*
X23567000Y-13870000D02*
X23567000Y-13970000D01*
X23517000Y-13920000D02*
X23617000Y-13920000D01*
X23821000Y-13870000D02*
X23821000Y-13970000D01*
X23771000Y-13920000D02*
X23871000Y-13920000D01*
X22750000Y-13040000D02*
X22750000Y-13140000D01*
X22700000Y-13090000D02*
X22800000Y-13090000D01*
X22750000Y-13294000D02*
X22750000Y-13394000D01*
X22700000Y-13344000D02*
X22800000Y-13344000D01*
X20837000Y-9573000D02*
X20837000Y-9673000D01*
X20787000Y-9623000D02*
X20887000Y-9623000D01*
X20837000Y-9827000D02*
X20837000Y-9927000D01*
X20787000Y-9877000D02*
X20887000Y-9877000D01*
X21091000Y-9573000D02*
X21091000Y-9673000D01*
X21041000Y-9623000D02*
X21141000Y-9623000D01*
X21091000Y-9827000D02*
X21091000Y-9927000D01*
X21041000Y-9877000D02*
X21141000Y-9877000D01*
X21345000Y-9573000D02*
X21345000Y-9673000D01*
X21295000Y-9623000D02*
X21395000Y-9623000D01*
X21345000Y-9827000D02*
X21345000Y-9927000D01*
X21295000Y-9877000D02*
X21395000Y-9877000D01*
X21599000Y-9573000D02*
X21599000Y-9673000D01*
X21549000Y-9623000D02*
X21649000Y-9623000D01*
X21599000Y-9827000D02*
X21599000Y-9927000D01*
X21549000Y-9877000D02*
X21649000Y-9877000D01*
X21853000Y-9573000D02*
X21853000Y-9673000D01*
X21803000Y-9623000D02*
X21903000Y-9623000D01*
X21853000Y-9827000D02*
X21853000Y-9927000D01*
X21803000Y-9877000D02*
X21903000Y-9877000D01*
X22107000Y-9573000D02*
X22107000Y-9673000D01*
X22057000Y-9623000D02*
X22157000Y-9623000D01*
X22107000Y-9827000D02*
X22107000Y-9927000D01*
X22057000Y-9877000D02*
X22157000Y-9877000D01*
X22361000Y-9573000D02*
X22361000Y-9673000D01*
X22311000Y-9623000D02*
X22411000Y-9623000D01*
X22361000Y-9827000D02*
X22361000Y-9927000D01*
X22311000Y-9877000D02*
X22411000Y-9877000D01*
X22615000Y-9573000D02*
X22615000Y-9673000D01*
X22565000Y-9623000D02*
X22665000Y-9623000D01*
X22615000Y-9827000D02*
X22615000Y-9927000D01*
X22565000Y-9877000D02*
X22665000Y-9877000D01*
X22869000Y-9573000D02*
X22869000Y-9673000D01*
X22819000Y-9623000D02*
X22919000Y-9623000D01*
X22869000Y-9827000D02*
X22869000Y-9927000D01*
X22819000Y-9877000D02*
X22919000Y-9877000D01*
X23123000Y-9573000D02*
X23123000Y-9673000D01*
X23073000Y-9623000D02*
X23173000Y-9623000D01*
X23123000Y-9827000D02*
X23123000Y-9927000D01*
X23073000Y-9877000D02*
X23173000Y-9877000D01*
X23377000Y-9573000D02*
X23377000Y-9673000D01*
X23327000Y-9623000D02*
X23427000Y-9623000D01*
X23377000Y-9827000D02*
X23377000Y-9927000D01*
X23327000Y-9877000D02*
X23427000Y-9877000D01*
X23631000Y-9573000D02*
X23631000Y-9673000D01*
X23581000Y-9623000D02*
X23681000Y-9623000D01*
X23631000Y-9827000D02*
X23631000Y-9927000D01*
X23581000Y-9877000D02*
X23681000Y-9877000D01*
X23885000Y-9573000D02*
X23885000Y-9673000D01*
X23835000Y-9623000D02*
X23935000Y-9623000D01*
X23885000Y-9827000D02*
X23885000Y-9927000D01*
X23835000Y-9877000D02*
X23935000Y-9877000D01*
X24139000Y-9573000D02*
X24139000Y-9673000D01*
X24089000Y-9623000D02*
X24189000Y-9623000D01*
X24139000Y-9827000D02*
X24139000Y-9927000D01*
X24089000Y-9877000D02*
X24189000Y-9877000D01*
X24393000Y-9573000D02*
X24393000Y-9673000D01*
X24343000Y-9623000D02*
X24443000Y-9623000D01*
X24393000Y-9827000D02*
X24393000Y-9927000D01*
X24343000Y-9877000D02*
X24443000Y-9877000D01*
X24647000Y-9573000D02*
X24647000Y-9673000D01*
X24597000Y-9623000D02*
X24697000Y-9623000D01*
X24647000Y-9827000D02*
X24647000Y-9927000D01*
X24597000Y-9877000D02*
X24697000Y-9877000D01*
X24901000Y-9573000D02*
X24901000Y-9673000D01*
X24851000Y-9623000D02*
X24951000Y-9623000D01*
X24901000Y-9827000D02*
X24901000Y-9927000D01*
X24851000Y-9877000D02*
X24951000Y-9877000D01*
X25155000Y-9573000D02*
X25155000Y-9673000D01*
X25105000Y-9623000D02*
X25205000Y-9623000D01*
X25155000Y-9827000D02*
X25155000Y-9927000D01*
X25105000Y-9877000D02*
X25205000Y-9877000D01*
X25409000Y-9573000D02*
X25409000Y-9673000D01*
X25359000Y-9623000D02*
X25459000Y-9623000D01*
X25409000Y-9827000D02*
X25409000Y-9927000D01*
X25359000Y-9877000D02*
X25459000Y-9877000D01*
X25663000Y-9573000D02*
X25663000Y-9673000D01*
X25613000Y-9623000D02*
X25713000Y-9623000D01*
X25663000Y-9827000D02*
X25663000Y-9927000D01*
X25613000Y-9877000D02*
X25713000Y-9877000D01*
X25540427Y-13907427D02*
X25540427Y-13822573D01*
X25455573Y-13822573D01*
X25455573Y-13907427D01*
X25540427Y-13907427D01*
X25794427Y-13907427D02*
X25794427Y-13822573D01*
X25709573Y-13822573D01*
X25709573Y-13907427D01*
X25794427Y-13907427D01*
X26048427Y-13907427D02*
X26048427Y-13822573D01*
X25963573Y-13822573D01*
X25963573Y-13907427D01*
X26048427Y-13907427D01*
X26302427Y-13907427D02*
X26302427Y-13822573D01*
X26217573Y-13822573D01*
X26217573Y-13907427D01*
X26302427Y-13907427D01*
X25552427Y-11432427D02*
X25552427Y-11347573D01*
X25467573Y-11347573D01*
X25467573Y-11432427D01*
X25552427Y-11432427D01*
X25806427Y-11432427D02*
X25806427Y-11347573D01*
X25721573Y-11347573D01*
X25721573Y-11432427D01*
X25806427Y-11432427D01*
X26060427Y-11432427D02*
X26060427Y-11347573D01*
X25975573Y-11347573D01*
X25975573Y-11432427D01*
X26060427Y-11432427D01*
X26314427Y-11432427D02*
X26314427Y-11347573D01*
X26229573Y-11347573D01*
X26229573Y-11432427D01*
X26314427Y-11432427D01*
X25547427Y-13082427D02*
X25547427Y-12997573D01*
X25462573Y-12997573D01*
X25462573Y-13082427D01*
X25547427Y-13082427D01*
X25801427Y-13082427D02*
X25801427Y-12997573D01*
X25716573Y-12997573D01*
X25716573Y-13082427D01*
X25801427Y-13082427D01*
X26055427Y-13082427D02*
X26055427Y-12997573D01*
X25970573Y-12997573D01*
X25970573Y-13082427D01*
X26055427Y-13082427D01*
X26309427Y-13082427D02*
X26309427Y-12997573D01*
X26224573Y-12997573D01*
X26224573Y-13082427D01*
X26309427Y-13082427D01*
X20377427Y-10452427D02*
X20377427Y-10367573D01*
X20292573Y-10367573D01*
X20292573Y-10452427D01*
X20377427Y-10452427D01*
X20377427Y-10960427D02*
X20377427Y-10875573D01*
X20292573Y-10875573D01*
X20292573Y-10960427D01*
X20377427Y-10960427D01*
X21249427Y-10392427D02*
X21249427Y-10307573D01*
X21164573Y-10307573D01*
X21164573Y-10392427D01*
X21249427Y-10392427D01*
X21630427Y-10392427D02*
X21630427Y-10307573D01*
X21545573Y-10307573D01*
X21545573Y-10392427D01*
X21630427Y-10392427D01*
X22011427Y-10392427D02*
X22011427Y-10307573D01*
X21926573Y-10307573D01*
X21926573Y-10392427D01*
X22011427Y-10392427D01*
X22392427Y-10392427D02*
X22392427Y-10307573D01*
X22307573Y-10307573D01*
X22307573Y-10392427D01*
X22392427Y-10392427D01*
X22773427Y-10392427D02*
X22773427Y-10307573D01*
X22688573Y-10307573D01*
X22688573Y-10392427D01*
X22773427Y-10392427D01*
X23154427Y-10392427D02*
X23154427Y-10307573D01*
X23069573Y-10307573D01*
X23069573Y-10392427D01*
X23154427Y-10392427D01*
X23535427Y-10392427D02*
X23535427Y-10307573D01*
X23450573Y-10307573D01*
X23450573Y-10392427D01*
X23535427Y-10392427D01*
X23916427Y-10392427D02*
X23916427Y-10307573D01*
X23831573Y-10307573D01*
X23831573Y-10392427D01*
X23916427Y-10392427D01*
X24297427Y-10392427D02*
X24297427Y-10307573D01*
X24212573Y-10307573D01*
X24212573Y-10392427D01*
X24297427Y-10392427D01*
X24678427Y-10392427D02*
X24678427Y-10307573D01*
X24593573Y-10307573D01*
X24593573Y-10392427D01*
X24678427Y-10392427D01*
X25059427Y-10392427D02*
X25059427Y-10307573D01*
X24974573Y-10307573D01*
X24974573Y-10392427D01*
X25059427Y-10392427D01*
X25440427Y-10392427D02*
X25440427Y-10307573D01*
X25355573Y-10307573D01*
X25355573Y-10392427D01*
X25440427Y-10392427D01*
X25821427Y-10392427D02*
X25821427Y-10307573D01*
X25736573Y-10307573D01*
X25736573Y-10392427D01*
X25821427Y-10392427D01*
X26202427Y-10392427D02*
X26202427Y-10307573D01*
X26117573Y-10307573D01*
X26117573Y-10392427D01*
X26202427Y-10392427D01*
X25547427Y-12257427D02*
X25547427Y-12172573D01*
X25462573Y-12172573D01*
X25462573Y-12257427D01*
X25547427Y-12257427D01*
X25801427Y-12257427D02*
X25801427Y-12172573D01*
X25716573Y-12172573D01*
X25716573Y-12257427D01*
X25801427Y-12257427D01*
X26055427Y-12257427D02*
X26055427Y-12172573D01*
X25970573Y-12172573D01*
X25970573Y-12257427D01*
X26055427Y-12257427D01*
X26309427Y-12257427D02*
X26309427Y-12172573D01*
X26224573Y-12172573D01*
X26224573Y-12257427D01*
X26309427Y-12257427D01*
X22754000Y-14302000D02*
X22869000Y-14187000D01*
X22754000Y-14072000D01*
X22639000Y-14187000D01*
X22754000Y-14302000D01*
X24126000Y-14302000D02*
X24241000Y-14187000D01*
X24126000Y-14072000D01*
X24011000Y-14187000D01*
X24126000Y-14302000D01*
D12*
X20281428Y-15470714D02*
X20281428Y-15170714D01*
X20352857Y-15170714D01*
X20395714Y-15185000D01*
X20424286Y-15213571D01*
X20438571Y-15242143D01*
X20452857Y-15299286D01*
X20452857Y-15342143D01*
X20438571Y-15399286D01*
X20424286Y-15427857D01*
X20395714Y-15456429D01*
X20352857Y-15470714D01*
X20281428Y-15470714D01*
X20581428Y-15470714D02*
X20581428Y-15270714D01*
X20581428Y-15327857D02*
X20595714Y-15299286D01*
X20610000Y-15285000D01*
X20638571Y-15270714D01*
X20667143Y-15270714D01*
X20767143Y-15470714D02*
X20767143Y-15270714D01*
X20767143Y-15170714D02*
X20752857Y-15185000D01*
X20767143Y-15199286D01*
X20781428Y-15185000D01*
X20767143Y-15170714D01*
X20767143Y-15199286D01*
X20952857Y-15470714D02*
X20924286Y-15456429D01*
X20910000Y-15427857D01*
X20910000Y-15170714D01*
X21110000Y-15470714D02*
X21081428Y-15456429D01*
X21067143Y-15427857D01*
X21067143Y-15170714D01*
X21452857Y-15470714D02*
X21452857Y-15170714D01*
X21552857Y-15385000D01*
X21652857Y-15170714D01*
X21652857Y-15470714D01*
X21924286Y-15470714D02*
X21924286Y-15313571D01*
X21910000Y-15285000D01*
X21881428Y-15270714D01*
X21824286Y-15270714D01*
X21795714Y-15285000D01*
X21924286Y-15456429D02*
X21895714Y-15470714D01*
X21824286Y-15470714D01*
X21795714Y-15456429D01*
X21781428Y-15427857D01*
X21781428Y-15399286D01*
X21795714Y-15370714D01*
X21824286Y-15356429D01*
X21895714Y-15356429D01*
X21924286Y-15342143D01*
X22067143Y-15270714D02*
X22067143Y-15570714D01*
X22067143Y-15285000D02*
X22095714Y-15270714D01*
X22152857Y-15270714D01*
X22181428Y-15285000D01*
X22195714Y-15299286D01*
X22210000Y-15327857D01*
X22210000Y-15413571D01*
X22195714Y-15442143D01*
X22181428Y-15456429D01*
X22152857Y-15470714D01*
X22095714Y-15470714D01*
X22067143Y-15456429D01*
X22338571Y-15442143D02*
X22352857Y-15456429D01*
X22338571Y-15470714D01*
X22324286Y-15456429D01*
X22338571Y-15442143D01*
X22338571Y-15470714D01*
X22338571Y-15285000D02*
X22352857Y-15299286D01*
X22338571Y-15313571D01*
X22324286Y-15299286D01*
X22338571Y-15285000D01*
X22338571Y-15313571D01*
X19965000Y-15950000D02*
X19995000Y-15980000D01*
X19995000Y-15950000D02*
X19965000Y-15980000D01*
X20338571Y-15800714D02*
X20367143Y-15800714D01*
X20395714Y-15815000D01*
X20410000Y-15829286D01*
X20424286Y-15857857D01*
X20438571Y-15915000D01*
X20438571Y-15986429D01*
X20424286Y-16043571D01*
X20410000Y-16072143D01*
X20395714Y-16086429D01*
X20367143Y-16100714D01*
X20338571Y-16100714D01*
X20310000Y-16086429D01*
X20295714Y-16072143D01*
X20281428Y-16043571D01*
X20267143Y-15986429D01*
X20267143Y-15915000D01*
X20281428Y-15857857D01*
X20295714Y-15829286D01*
X20310000Y-15815000D01*
X20338571Y-15800714D01*
X20567143Y-16072143D02*
X20581428Y-16086429D01*
X20567143Y-16100714D01*
X20552857Y-16086429D01*
X20567143Y-16072143D01*
X20567143Y-16100714D01*
X20681428Y-15800714D02*
X20867143Y-15800714D01*
X20767143Y-15915000D01*
X20810000Y-15915000D01*
X20838571Y-15929286D01*
X20852857Y-15943571D01*
X20867143Y-15972143D01*
X20867143Y-16043571D01*
X20852857Y-16072143D01*
X20838571Y-16086429D01*
X20810000Y-16100714D01*
X20724286Y-16100714D01*
X20695714Y-16086429D01*
X20681428Y-16072143D01*
X21052857Y-15800714D02*
X21081428Y-15800714D01*
X21110000Y-15815000D01*
X21124286Y-15829286D01*
X21138571Y-15857857D01*
X21152857Y-15915000D01*
X21152857Y-15986429D01*
X21138571Y-16043571D01*
X21124286Y-16072143D01*
X21110000Y-16086429D01*
X21081428Y-16100714D01*
X21052857Y-16100714D01*
X21024286Y-16086429D01*
X21010000Y-16072143D01*
X20995714Y-16043571D01*
X20981428Y-15986429D01*
X20981428Y-15915000D01*
X20995714Y-15857857D01*
X21010000Y-15829286D01*
X21024286Y-15815000D01*
X21052857Y-15800714D01*
X21281428Y-16100714D02*
X21281428Y-15900714D01*
X21281428Y-15929286D02*
X21295714Y-15915000D01*
X21324286Y-15900714D01*
X21367143Y-15900714D01*
X21395714Y-15915000D01*
X21410000Y-15943571D01*
X21410000Y-16100714D01*
X21410000Y-15943571D02*
X21424286Y-15915000D01*
X21452857Y-15900714D01*
X21495714Y-15900714D01*
X21524286Y-15915000D01*
X21538571Y-15943571D01*
X21538571Y-16100714D01*
X21681428Y-16100714D02*
X21681428Y-15900714D01*
X21681428Y-15929286D02*
X21695714Y-15915000D01*
X21724286Y-15900714D01*
X21767143Y-15900714D01*
X21795714Y-15915000D01*
X21810000Y-15943571D01*
X21810000Y-16100714D01*
X21810000Y-15943571D02*
X21824286Y-15915000D01*
X21852857Y-15900714D01*
X21895714Y-15900714D01*
X21924286Y-15915000D01*
X21938571Y-15943571D01*
X21938571Y-16100714D01*
X22524286Y-15786429D02*
X22267143Y-16172143D01*
X22910000Y-15800714D02*
X22938571Y-15800714D01*
X22967143Y-15815000D01*
X22981428Y-15829286D01*
X22995714Y-15857857D01*
X23010000Y-15915000D01*
X23010000Y-15986429D01*
X22995714Y-16043571D01*
X22981428Y-16072143D01*
X22967143Y-16086429D01*
X22938571Y-16100714D01*
X22910000Y-16100714D01*
X22881428Y-16086429D01*
X22867143Y-16072143D01*
X22852857Y-16043571D01*
X22838571Y-15986429D01*
X22838571Y-15915000D01*
X22852857Y-15857857D01*
X22867143Y-15829286D01*
X22881428Y-15815000D01*
X22910000Y-15800714D01*
X23138571Y-16072143D02*
X23152857Y-16086429D01*
X23138571Y-16100714D01*
X23124286Y-16086429D01*
X23138571Y-16072143D01*
X23138571Y-16100714D01*
X23338571Y-15800714D02*
X23367143Y-15800714D01*
X23395714Y-15815000D01*
X23410000Y-15829286D01*
X23424286Y-15857857D01*
X23438571Y-15915000D01*
X23438571Y-15986429D01*
X23424286Y-16043571D01*
X23410000Y-16072143D01*
X23395714Y-16086429D01*
X23367143Y-16100714D01*
X23338571Y-16100714D01*
X23310000Y-16086429D01*
X23295714Y-16072143D01*
X23281428Y-16043571D01*
X23267143Y-15986429D01*
X23267143Y-15915000D01*
X23281428Y-15857857D01*
X23295714Y-15829286D01*
X23310000Y-15815000D01*
X23338571Y-15800714D01*
X23724286Y-16100714D02*
X23552857Y-16100714D01*
X23638571Y-16100714D02*
X23638571Y-15800714D01*
X23610000Y-15843571D01*
X23581428Y-15872143D01*
X23552857Y-15886429D01*
X23838571Y-15829286D02*
X23852857Y-15815000D01*
X23881428Y-15800714D01*
X23952857Y-15800714D01*
X23981428Y-15815000D01*
X23995714Y-15829286D01*
X24010000Y-15857857D01*
X24010000Y-15886429D01*
X23995714Y-15929286D01*
X23824286Y-16100714D01*
X24010000Y-16100714D01*
X24124286Y-15800714D02*
X24124286Y-15857857D01*
X24238571Y-15800714D02*
X24238571Y-15857857D01*
X24681428Y-16215000D02*
X24667143Y-16200714D01*
X24638571Y-16157857D01*
X24624286Y-16129286D01*
X24610000Y-16086429D01*
X24595714Y-16015000D01*
X24595714Y-15957857D01*
X24610000Y-15886429D01*
X24624286Y-15843571D01*
X24638571Y-15815000D01*
X24667143Y-15772143D01*
X24681428Y-15757857D01*
X24952857Y-16100714D02*
X24781428Y-16100714D01*
X24867143Y-16100714D02*
X24867143Y-15800714D01*
X24838571Y-15843571D01*
X24810000Y-15872143D01*
X24781428Y-15886429D01*
X25124286Y-15929286D02*
X25095714Y-15915000D01*
X25081428Y-15900714D01*
X25067143Y-15872143D01*
X25067143Y-15857857D01*
X25081428Y-15829286D01*
X25095714Y-15815000D01*
X25124286Y-15800714D01*
X25181428Y-15800714D01*
X25210000Y-15815000D01*
X25224286Y-15829286D01*
X25238571Y-15857857D01*
X25238571Y-15872143D01*
X25224286Y-15900714D01*
X25210000Y-15915000D01*
X25181428Y-15929286D01*
X25124286Y-15929286D01*
X25095714Y-15943571D01*
X25081428Y-15957857D01*
X25067143Y-15986429D01*
X25067143Y-16043571D01*
X25081428Y-16072143D01*
X25095714Y-16086429D01*
X25124286Y-16100714D01*
X25181428Y-16100714D01*
X25210000Y-16086429D01*
X25224286Y-16072143D01*
X25238571Y-16043571D01*
X25238571Y-15986429D01*
X25224286Y-15957857D01*
X25210000Y-15943571D01*
X25181428Y-15929286D01*
X25595714Y-16100714D02*
X25595714Y-15800714D01*
X25724286Y-16100714D02*
X25724286Y-15943571D01*
X25710000Y-15915000D01*
X25681428Y-15900714D01*
X25638571Y-15900714D01*
X25610000Y-15915000D01*
X25595714Y-15929286D01*
X25910000Y-16100714D02*
X25881428Y-16086429D01*
X25867143Y-16072143D01*
X25852857Y-16043571D01*
X25852857Y-15957857D01*
X25867143Y-15929286D01*
X25881428Y-15915000D01*
X25910000Y-15900714D01*
X25952857Y-15900714D01*
X25981428Y-15915000D01*
X25995714Y-15929286D01*
X26010000Y-15957857D01*
X26010000Y-16043571D01*
X25995714Y-16072143D01*
X25981428Y-16086429D01*
X25952857Y-16100714D01*
X25910000Y-16100714D01*
X26181428Y-16100714D02*
X26152857Y-16086429D01*
X26138571Y-16057857D01*
X26138571Y-15800714D01*
X26410000Y-16086429D02*
X26381428Y-16100714D01*
X26324286Y-16100714D01*
X26295714Y-16086429D01*
X26281428Y-16057857D01*
X26281428Y-15943571D01*
X26295714Y-15915000D01*
X26324286Y-15900714D01*
X26381428Y-15900714D01*
X26410000Y-15915000D01*
X26424286Y-15943571D01*
X26424286Y-15972143D01*
X26281428Y-16000714D01*
X26538571Y-16086429D02*
X26567143Y-16100714D01*
X26624286Y-16100714D01*
X26652857Y-16086429D01*
X26667143Y-16057857D01*
X26667143Y-16043571D01*
X26652857Y-16015000D01*
X26624286Y-16000714D01*
X26581428Y-16000714D01*
X26552857Y-15986429D01*
X26538571Y-15957857D01*
X26538571Y-15943571D01*
X26552857Y-15915000D01*
X26581428Y-15900714D01*
X26624286Y-15900714D01*
X26652857Y-15915000D01*
X26767143Y-16215000D02*
X26781428Y-16200714D01*
X26810000Y-16157857D01*
X26824286Y-16129286D01*
X26838571Y-16086429D01*
X26852857Y-16015000D01*
X26852857Y-15957857D01*
X26838571Y-15886429D01*
X26824286Y-15843571D01*
X26810000Y-15815000D01*
X26781428Y-15772143D01*
X26767143Y-15757857D01*
X19995000Y-16361000D02*
G75*
G03*
X19995000Y-16361000I-38100J0D01*
G01*
X20338571Y-16196714D02*
X20367143Y-16196714D01*
X20395714Y-16211000D01*
X20410000Y-16225286D01*
X20424286Y-16253857D01*
X20438571Y-16311000D01*
X20438571Y-16382429D01*
X20424286Y-16439571D01*
X20410000Y-16468143D01*
X20395714Y-16482429D01*
X20367143Y-16496714D01*
X20338571Y-16496714D01*
X20310000Y-16482429D01*
X20295714Y-16468143D01*
X20281428Y-16439571D01*
X20267143Y-16382429D01*
X20267143Y-16311000D01*
X20281428Y-16253857D01*
X20295714Y-16225286D01*
X20310000Y-16211000D01*
X20338571Y-16196714D01*
X20567143Y-16468143D02*
X20581428Y-16482429D01*
X20567143Y-16496714D01*
X20552857Y-16482429D01*
X20567143Y-16468143D01*
X20567143Y-16496714D01*
X20681428Y-16196714D02*
X20881428Y-16196714D01*
X20752857Y-16496714D01*
X21124286Y-16196714D02*
X21067143Y-16196714D01*
X21038571Y-16211000D01*
X21024286Y-16225286D01*
X20995714Y-16268143D01*
X20981428Y-16325286D01*
X20981428Y-16439571D01*
X20995714Y-16468143D01*
X21010000Y-16482429D01*
X21038571Y-16496714D01*
X21095714Y-16496714D01*
X21124286Y-16482429D01*
X21138571Y-16468143D01*
X21152857Y-16439571D01*
X21152857Y-16368143D01*
X21138571Y-16339571D01*
X21124286Y-16325286D01*
X21095714Y-16311000D01*
X21038571Y-16311000D01*
X21010000Y-16325286D01*
X20995714Y-16339571D01*
X20981428Y-16368143D01*
X21281428Y-16496714D02*
X21281428Y-16296714D01*
X21281428Y-16325286D02*
X21295714Y-16311000D01*
X21324286Y-16296714D01*
X21367143Y-16296714D01*
X21395714Y-16311000D01*
X21410000Y-16339571D01*
X21410000Y-16496714D01*
X21410000Y-16339571D02*
X21424286Y-16311000D01*
X21452857Y-16296714D01*
X21495714Y-16296714D01*
X21524286Y-16311000D01*
X21538571Y-16339571D01*
X21538571Y-16496714D01*
X21681428Y-16496714D02*
X21681428Y-16296714D01*
X21681428Y-16325286D02*
X21695714Y-16311000D01*
X21724286Y-16296714D01*
X21767143Y-16296714D01*
X21795714Y-16311000D01*
X21810000Y-16339571D01*
X21810000Y-16496714D01*
X21810000Y-16339571D02*
X21824286Y-16311000D01*
X21852857Y-16296714D01*
X21895714Y-16296714D01*
X21924286Y-16311000D01*
X21938571Y-16339571D01*
X21938571Y-16496714D01*
X22524286Y-16182429D02*
X22267143Y-16568143D01*
X22910000Y-16196714D02*
X22938571Y-16196714D01*
X22967143Y-16211000D01*
X22981428Y-16225286D01*
X22995714Y-16253857D01*
X23010000Y-16311000D01*
X23010000Y-16382429D01*
X22995714Y-16439571D01*
X22981428Y-16468143D01*
X22967143Y-16482429D01*
X22938571Y-16496714D01*
X22910000Y-16496714D01*
X22881428Y-16482429D01*
X22867143Y-16468143D01*
X22852857Y-16439571D01*
X22838571Y-16382429D01*
X22838571Y-16311000D01*
X22852857Y-16253857D01*
X22867143Y-16225286D01*
X22881428Y-16211000D01*
X22910000Y-16196714D01*
X23138571Y-16468143D02*
X23152857Y-16482429D01*
X23138571Y-16496714D01*
X23124286Y-16482429D01*
X23138571Y-16468143D01*
X23138571Y-16496714D01*
X23338571Y-16196714D02*
X23367143Y-16196714D01*
X23395714Y-16211000D01*
X23410000Y-16225286D01*
X23424286Y-16253857D01*
X23438571Y-16311000D01*
X23438571Y-16382429D01*
X23424286Y-16439571D01*
X23410000Y-16468143D01*
X23395714Y-16482429D01*
X23367143Y-16496714D01*
X23338571Y-16496714D01*
X23310000Y-16482429D01*
X23295714Y-16468143D01*
X23281428Y-16439571D01*
X23267143Y-16382429D01*
X23267143Y-16311000D01*
X23281428Y-16253857D01*
X23295714Y-16225286D01*
X23310000Y-16211000D01*
X23338571Y-16196714D01*
X23538571Y-16196714D02*
X23724286Y-16196714D01*
X23624286Y-16311000D01*
X23667143Y-16311000D01*
X23695714Y-16325286D01*
X23710000Y-16339571D01*
X23724286Y-16368143D01*
X23724286Y-16439571D01*
X23710000Y-16468143D01*
X23695714Y-16482429D01*
X23667143Y-16496714D01*
X23581428Y-16496714D01*
X23552857Y-16482429D01*
X23538571Y-16468143D01*
X23910000Y-16196714D02*
X23938571Y-16196714D01*
X23967143Y-16211000D01*
X23981428Y-16225286D01*
X23995714Y-16253857D01*
X24010000Y-16311000D01*
X24010000Y-16382429D01*
X23995714Y-16439571D01*
X23981428Y-16468143D01*
X23967143Y-16482429D01*
X23938571Y-16496714D01*
X23910000Y-16496714D01*
X23881428Y-16482429D01*
X23867143Y-16468143D01*
X23852857Y-16439571D01*
X23838571Y-16382429D01*
X23838571Y-16311000D01*
X23852857Y-16253857D01*
X23867143Y-16225286D01*
X23881428Y-16211000D01*
X23910000Y-16196714D01*
X24124286Y-16196714D02*
X24124286Y-16253857D01*
X24238571Y-16196714D02*
X24238571Y-16253857D01*
X24681428Y-16611000D02*
X24667143Y-16596714D01*
X24638571Y-16553857D01*
X24624286Y-16525286D01*
X24610000Y-16482429D01*
X24595714Y-16411000D01*
X24595714Y-16353857D01*
X24610000Y-16282429D01*
X24624286Y-16239571D01*
X24638571Y-16211000D01*
X24667143Y-16168143D01*
X24681428Y-16153857D01*
X24952857Y-16496714D02*
X24781428Y-16496714D01*
X24867143Y-16496714D02*
X24867143Y-16196714D01*
X24838571Y-16239571D01*
X24810000Y-16268143D01*
X24781428Y-16282429D01*
X25210000Y-16196714D02*
X25152857Y-16196714D01*
X25124286Y-16211000D01*
X25110000Y-16225286D01*
X25081428Y-16268143D01*
X25067143Y-16325286D01*
X25067143Y-16439571D01*
X25081428Y-16468143D01*
X25095714Y-16482429D01*
X25124286Y-16496714D01*
X25181428Y-16496714D01*
X25210000Y-16482429D01*
X25224286Y-16468143D01*
X25238571Y-16439571D01*
X25238571Y-16368143D01*
X25224286Y-16339571D01*
X25210000Y-16325286D01*
X25181428Y-16311000D01*
X25124286Y-16311000D01*
X25095714Y-16325286D01*
X25081428Y-16339571D01*
X25067143Y-16368143D01*
X25595714Y-16496714D02*
X25595714Y-16196714D01*
X25724286Y-16496714D02*
X25724286Y-16339571D01*
X25710000Y-16311000D01*
X25681428Y-16296714D01*
X25638571Y-16296714D01*
X25610000Y-16311000D01*
X25595714Y-16325286D01*
X25910000Y-16496714D02*
X25881428Y-16482429D01*
X25867143Y-16468143D01*
X25852857Y-16439571D01*
X25852857Y-16353857D01*
X25867143Y-16325286D01*
X25881428Y-16311000D01*
X25910000Y-16296714D01*
X25952857Y-16296714D01*
X25981428Y-16311000D01*
X25995714Y-16325286D01*
X26010000Y-16353857D01*
X26010000Y-16439571D01*
X25995714Y-16468143D01*
X25981428Y-16482429D01*
X25952857Y-16496714D01*
X25910000Y-16496714D01*
X26181428Y-16496714D02*
X26152857Y-16482429D01*
X26138571Y-16453857D01*
X26138571Y-16196714D01*
X26410000Y-16482429D02*
X26381428Y-16496714D01*
X26324286Y-16496714D01*
X26295714Y-16482429D01*
X26281428Y-16453857D01*
X26281428Y-16339571D01*
X26295714Y-16311000D01*
X26324286Y-16296714D01*
X26381428Y-16296714D01*
X26410000Y-16311000D01*
X26424286Y-16339571D01*
X26424286Y-16368143D01*
X26281428Y-16396714D01*
X26538571Y-16482429D02*
X26567143Y-16496714D01*
X26624286Y-16496714D01*
X26652857Y-16482429D01*
X26667143Y-16453857D01*
X26667143Y-16439571D01*
X26652857Y-16411000D01*
X26624286Y-16396714D01*
X26581428Y-16396714D01*
X26552857Y-16382429D01*
X26538571Y-16353857D01*
X26538571Y-16339571D01*
X26552857Y-16311000D01*
X26581428Y-16296714D01*
X26624286Y-16296714D01*
X26652857Y-16311000D01*
X26767143Y-16611000D02*
X26781428Y-16596714D01*
X26810000Y-16553857D01*
X26824286Y-16525286D01*
X26838571Y-16482429D01*
X26852857Y-16411000D01*
X26852857Y-16353857D01*
X26838571Y-16282429D01*
X26824286Y-16239571D01*
X26810000Y-16211000D01*
X26781428Y-16168143D01*
X26767143Y-16153857D01*
X19945000Y-16707000D02*
X19945000Y-16807000D01*
X19895000Y-16757000D02*
X19995000Y-16757000D01*
X20438571Y-16892714D02*
X20267143Y-16892714D01*
X20352857Y-16892714D02*
X20352857Y-16592714D01*
X20324286Y-16635571D01*
X20295714Y-16664143D01*
X20267143Y-16678429D01*
X20567143Y-16864143D02*
X20581428Y-16878429D01*
X20567143Y-16892714D01*
X20552857Y-16878429D01*
X20567143Y-16864143D01*
X20567143Y-16892714D01*
X20767143Y-16592714D02*
X20795714Y-16592714D01*
X20824286Y-16607000D01*
X20838571Y-16621286D01*
X20852857Y-16649857D01*
X20867143Y-16707000D01*
X20867143Y-16778429D01*
X20852857Y-16835572D01*
X20838571Y-16864143D01*
X20824286Y-16878429D01*
X20795714Y-16892714D01*
X20767143Y-16892714D01*
X20738571Y-16878429D01*
X20724286Y-16864143D01*
X20710000Y-16835572D01*
X20695714Y-16778429D01*
X20695714Y-16707000D01*
X20710000Y-16649857D01*
X20724286Y-16621286D01*
X20738571Y-16607000D01*
X20767143Y-16592714D01*
X21052857Y-16592714D02*
X21081428Y-16592714D01*
X21110000Y-16607000D01*
X21124286Y-16621286D01*
X21138571Y-16649857D01*
X21152857Y-16707000D01*
X21152857Y-16778429D01*
X21138571Y-16835572D01*
X21124286Y-16864143D01*
X21110000Y-16878429D01*
X21081428Y-16892714D01*
X21052857Y-16892714D01*
X21024286Y-16878429D01*
X21010000Y-16864143D01*
X20995714Y-16835572D01*
X20981428Y-16778429D01*
X20981428Y-16707000D01*
X20995714Y-16649857D01*
X21010000Y-16621286D01*
X21024286Y-16607000D01*
X21052857Y-16592714D01*
X21281428Y-16892714D02*
X21281428Y-16692714D01*
X21281428Y-16721286D02*
X21295714Y-16707000D01*
X21324286Y-16692714D01*
X21367143Y-16692714D01*
X21395714Y-16707000D01*
X21410000Y-16735571D01*
X21410000Y-16892714D01*
X21410000Y-16735571D02*
X21424286Y-16707000D01*
X21452857Y-16692714D01*
X21495714Y-16692714D01*
X21524286Y-16707000D01*
X21538571Y-16735571D01*
X21538571Y-16892714D01*
X21681428Y-16892714D02*
X21681428Y-16692714D01*
X21681428Y-16721286D02*
X21695714Y-16707000D01*
X21724286Y-16692714D01*
X21767143Y-16692714D01*
X21795714Y-16707000D01*
X21810000Y-16735571D01*
X21810000Y-16892714D01*
X21810000Y-16735571D02*
X21824286Y-16707000D01*
X21852857Y-16692714D01*
X21895714Y-16692714D01*
X21924286Y-16707000D01*
X21938571Y-16735571D01*
X21938571Y-16892714D01*
X22524286Y-16578429D02*
X22267143Y-16964143D01*
X22910000Y-16592714D02*
X22938571Y-16592714D01*
X22967143Y-16607000D01*
X22981428Y-16621286D01*
X22995714Y-16649857D01*
X23010000Y-16707000D01*
X23010000Y-16778429D01*
X22995714Y-16835572D01*
X22981428Y-16864143D01*
X22967143Y-16878429D01*
X22938571Y-16892714D01*
X22910000Y-16892714D01*
X22881428Y-16878429D01*
X22867143Y-16864143D01*
X22852857Y-16835572D01*
X22838571Y-16778429D01*
X22838571Y-16707000D01*
X22852857Y-16649857D01*
X22867143Y-16621286D01*
X22881428Y-16607000D01*
X22910000Y-16592714D01*
X23138571Y-16864143D02*
X23152857Y-16878429D01*
X23138571Y-16892714D01*
X23124286Y-16878429D01*
X23138571Y-16864143D01*
X23138571Y-16892714D01*
X23338571Y-16592714D02*
X23367143Y-16592714D01*
X23395714Y-16607000D01*
X23410000Y-16621286D01*
X23424286Y-16649857D01*
X23438571Y-16707000D01*
X23438571Y-16778429D01*
X23424286Y-16835572D01*
X23410000Y-16864143D01*
X23395714Y-16878429D01*
X23367143Y-16892714D01*
X23338571Y-16892714D01*
X23310000Y-16878429D01*
X23295714Y-16864143D01*
X23281428Y-16835572D01*
X23267143Y-16778429D01*
X23267143Y-16707000D01*
X23281428Y-16649857D01*
X23295714Y-16621286D01*
X23310000Y-16607000D01*
X23338571Y-16592714D01*
X23538571Y-16592714D02*
X23724286Y-16592714D01*
X23624286Y-16707000D01*
X23667143Y-16707000D01*
X23695714Y-16721286D01*
X23710000Y-16735571D01*
X23724286Y-16764143D01*
X23724286Y-16835572D01*
X23710000Y-16864143D01*
X23695714Y-16878429D01*
X23667143Y-16892714D01*
X23581428Y-16892714D01*
X23552857Y-16878429D01*
X23538571Y-16864143D01*
X23867143Y-16892714D02*
X23924286Y-16892714D01*
X23952857Y-16878429D01*
X23967143Y-16864143D01*
X23995714Y-16821286D01*
X24010000Y-16764143D01*
X24010000Y-16649857D01*
X23995714Y-16621286D01*
X23981428Y-16607000D01*
X23952857Y-16592714D01*
X23895714Y-16592714D01*
X23867143Y-16607000D01*
X23852857Y-16621286D01*
X23838571Y-16649857D01*
X23838571Y-16721286D01*
X23852857Y-16749857D01*
X23867143Y-16764143D01*
X23895714Y-16778429D01*
X23952857Y-16778429D01*
X23981428Y-16764143D01*
X23995714Y-16749857D01*
X24010000Y-16721286D01*
X24124286Y-16592714D02*
X24124286Y-16649857D01*
X24238571Y-16592714D02*
X24238571Y-16649857D01*
X24681428Y-17007000D02*
X24667143Y-16992714D01*
X24638571Y-16949857D01*
X24624286Y-16921286D01*
X24610000Y-16878429D01*
X24595714Y-16807000D01*
X24595714Y-16749857D01*
X24610000Y-16678429D01*
X24624286Y-16635571D01*
X24638571Y-16607000D01*
X24667143Y-16564143D01*
X24681428Y-16549857D01*
X24924286Y-16592714D02*
X24867143Y-16592714D01*
X24838571Y-16607000D01*
X24824286Y-16621286D01*
X24795714Y-16664143D01*
X24781428Y-16721286D01*
X24781428Y-16835572D01*
X24795714Y-16864143D01*
X24810000Y-16878429D01*
X24838571Y-16892714D01*
X24895714Y-16892714D01*
X24924286Y-16878429D01*
X24938571Y-16864143D01*
X24952857Y-16835572D01*
X24952857Y-16764143D01*
X24938571Y-16735571D01*
X24924286Y-16721286D01*
X24895714Y-16707000D01*
X24838571Y-16707000D01*
X24810000Y-16721286D01*
X24795714Y-16735571D01*
X24781428Y-16764143D01*
X25067143Y-16621286D02*
X25081428Y-16607000D01*
X25110000Y-16592714D01*
X25181428Y-16592714D01*
X25210000Y-16607000D01*
X25224286Y-16621286D01*
X25238571Y-16649857D01*
X25238571Y-16678429D01*
X25224286Y-16721286D01*
X25052857Y-16892714D01*
X25238571Y-16892714D01*
X25595714Y-16892714D02*
X25595714Y-16592714D01*
X25724286Y-16892714D02*
X25724286Y-16735571D01*
X25710000Y-16707000D01*
X25681428Y-16692714D01*
X25638571Y-16692714D01*
X25610000Y-16707000D01*
X25595714Y-16721286D01*
X25910000Y-16892714D02*
X25881428Y-16878429D01*
X25867143Y-16864143D01*
X25852857Y-16835572D01*
X25852857Y-16749857D01*
X25867143Y-16721286D01*
X25881428Y-16707000D01*
X25910000Y-16692714D01*
X25952857Y-16692714D01*
X25981428Y-16707000D01*
X25995714Y-16721286D01*
X26010000Y-16749857D01*
X26010000Y-16835572D01*
X25995714Y-16864143D01*
X25981428Y-16878429D01*
X25952857Y-16892714D01*
X25910000Y-16892714D01*
X26181428Y-16892714D02*
X26152857Y-16878429D01*
X26138571Y-16849857D01*
X26138571Y-16592714D01*
X26410000Y-16878429D02*
X26381428Y-16892714D01*
X26324286Y-16892714D01*
X26295714Y-16878429D01*
X26281428Y-16849857D01*
X26281428Y-16735571D01*
X26295714Y-16707000D01*
X26324286Y-16692714D01*
X26381428Y-16692714D01*
X26410000Y-16707000D01*
X26424286Y-16735571D01*
X26424286Y-16764143D01*
X26281428Y-16792714D01*
X26538571Y-16878429D02*
X26567143Y-16892714D01*
X26624286Y-16892714D01*
X26652857Y-16878429D01*
X26667143Y-16849857D01*
X26667143Y-16835572D01*
X26652857Y-16807000D01*
X26624286Y-16792714D01*
X26581428Y-16792714D01*
X26552857Y-16778429D01*
X26538571Y-16749857D01*
X26538571Y-16735571D01*
X26552857Y-16707000D01*
X26581428Y-16692714D01*
X26624286Y-16692714D01*
X26652857Y-16707000D01*
X26767143Y-17007000D02*
X26781428Y-16992714D01*
X26810000Y-16949857D01*
X26824286Y-16921286D01*
X26838571Y-16878429D01*
X26852857Y-16807000D01*
X26852857Y-16749857D01*
X26838571Y-16678429D01*
X26824286Y-16635571D01*
X26810000Y-16607000D01*
X26781428Y-16564143D01*
X26767143Y-16549857D01*
X19977427Y-17195427D02*
X19977427Y-17110573D01*
X19892573Y-17110573D01*
X19892573Y-17195427D01*
X19977427Y-17195427D01*
X20438571Y-17288714D02*
X20267143Y-17288714D01*
X20352857Y-17288714D02*
X20352857Y-16988714D01*
X20324286Y-17031572D01*
X20295714Y-17060143D01*
X20267143Y-17074429D01*
X20567143Y-17260143D02*
X20581428Y-17274429D01*
X20567143Y-17288714D01*
X20552857Y-17274429D01*
X20567143Y-17260143D01*
X20567143Y-17288714D01*
X20695714Y-17017286D02*
X20710000Y-17003000D01*
X20738571Y-16988714D01*
X20810000Y-16988714D01*
X20838571Y-17003000D01*
X20852857Y-17017286D01*
X20867143Y-17045857D01*
X20867143Y-17074429D01*
X20852857Y-17117286D01*
X20681428Y-17288714D01*
X20867143Y-17288714D01*
X21052857Y-16988714D02*
X21081428Y-16988714D01*
X21110000Y-17003000D01*
X21124286Y-17017286D01*
X21138571Y-17045857D01*
X21152857Y-17103000D01*
X21152857Y-17174429D01*
X21138571Y-17231572D01*
X21124286Y-17260143D01*
X21110000Y-17274429D01*
X21081428Y-17288714D01*
X21052857Y-17288714D01*
X21024286Y-17274429D01*
X21010000Y-17260143D01*
X20995714Y-17231572D01*
X20981428Y-17174429D01*
X20981428Y-17103000D01*
X20995714Y-17045857D01*
X21010000Y-17017286D01*
X21024286Y-17003000D01*
X21052857Y-16988714D01*
X21281428Y-17288714D02*
X21281428Y-17088714D01*
X21281428Y-17117286D02*
X21295714Y-17103000D01*
X21324286Y-17088714D01*
X21367143Y-17088714D01*
X21395714Y-17103000D01*
X21410000Y-17131572D01*
X21410000Y-17288714D01*
X21410000Y-17131572D02*
X21424286Y-17103000D01*
X21452857Y-17088714D01*
X21495714Y-17088714D01*
X21524286Y-17103000D01*
X21538571Y-17131572D01*
X21538571Y-17288714D01*
X21681428Y-17288714D02*
X21681428Y-17088714D01*
X21681428Y-17117286D02*
X21695714Y-17103000D01*
X21724286Y-17088714D01*
X21767143Y-17088714D01*
X21795714Y-17103000D01*
X21810000Y-17131572D01*
X21810000Y-17288714D01*
X21810000Y-17131572D02*
X21824286Y-17103000D01*
X21852857Y-17088714D01*
X21895714Y-17088714D01*
X21924286Y-17103000D01*
X21938571Y-17131572D01*
X21938571Y-17288714D01*
X22524286Y-16974429D02*
X22267143Y-17360143D01*
X22910000Y-16988714D02*
X22938571Y-16988714D01*
X22967143Y-17003000D01*
X22981428Y-17017286D01*
X22995714Y-17045857D01*
X23010000Y-17103000D01*
X23010000Y-17174429D01*
X22995714Y-17231572D01*
X22981428Y-17260143D01*
X22967143Y-17274429D01*
X22938571Y-17288714D01*
X22910000Y-17288714D01*
X22881428Y-17274429D01*
X22867143Y-17260143D01*
X22852857Y-17231572D01*
X22838571Y-17174429D01*
X22838571Y-17103000D01*
X22852857Y-17045857D01*
X22867143Y-17017286D01*
X22881428Y-17003000D01*
X22910000Y-16988714D01*
X23138571Y-17260143D02*
X23152857Y-17274429D01*
X23138571Y-17288714D01*
X23124286Y-17274429D01*
X23138571Y-17260143D01*
X23138571Y-17288714D01*
X23338571Y-16988714D02*
X23367143Y-16988714D01*
X23395714Y-17003000D01*
X23410000Y-17017286D01*
X23424286Y-17045857D01*
X23438571Y-17103000D01*
X23438571Y-17174429D01*
X23424286Y-17231572D01*
X23410000Y-17260143D01*
X23395714Y-17274429D01*
X23367143Y-17288714D01*
X23338571Y-17288714D01*
X23310000Y-17274429D01*
X23295714Y-17260143D01*
X23281428Y-17231572D01*
X23267143Y-17174429D01*
X23267143Y-17103000D01*
X23281428Y-17045857D01*
X23295714Y-17017286D01*
X23310000Y-17003000D01*
X23338571Y-16988714D01*
X23695714Y-17088714D02*
X23695714Y-17288714D01*
X23624286Y-16974429D02*
X23552857Y-17188714D01*
X23738571Y-17188714D01*
X23824286Y-16988714D02*
X24024286Y-16988714D01*
X23895714Y-17288714D01*
X24124286Y-16988714D02*
X24124286Y-17045857D01*
X24238571Y-16988714D02*
X24238571Y-17045857D01*
X24681428Y-17403000D02*
X24667143Y-17388714D01*
X24638571Y-17345857D01*
X24624286Y-17317286D01*
X24610000Y-17274429D01*
X24595714Y-17203000D01*
X24595714Y-17145857D01*
X24610000Y-17074429D01*
X24624286Y-17031572D01*
X24638571Y-17003000D01*
X24667143Y-16960143D01*
X24681428Y-16945857D01*
X24767143Y-16988714D02*
X24952857Y-16988714D01*
X24852857Y-17103000D01*
X24895714Y-17103000D01*
X24924286Y-17117286D01*
X24938571Y-17131572D01*
X24952857Y-17160143D01*
X24952857Y-17231572D01*
X24938571Y-17260143D01*
X24924286Y-17274429D01*
X24895714Y-17288714D01*
X24810000Y-17288714D01*
X24781428Y-17274429D01*
X24767143Y-17260143D01*
X25067143Y-17017286D02*
X25081428Y-17003000D01*
X25110000Y-16988714D01*
X25181428Y-16988714D01*
X25210000Y-17003000D01*
X25224286Y-17017286D01*
X25238571Y-17045857D01*
X25238571Y-17074429D01*
X25224286Y-17117286D01*
X25052857Y-17288714D01*
X25238571Y-17288714D01*
X25595714Y-17288714D02*
X25595714Y-16988714D01*
X25724286Y-17288714D02*
X25724286Y-17131572D01*
X25710000Y-17103000D01*
X25681428Y-17088714D01*
X25638571Y-17088714D01*
X25610000Y-17103000D01*
X25595714Y-17117286D01*
X25910000Y-17288714D02*
X25881428Y-17274429D01*
X25867143Y-17260143D01*
X25852857Y-17231572D01*
X25852857Y-17145857D01*
X25867143Y-17117286D01*
X25881428Y-17103000D01*
X25910000Y-17088714D01*
X25952857Y-17088714D01*
X25981428Y-17103000D01*
X25995714Y-17117286D01*
X26010000Y-17145857D01*
X26010000Y-17231572D01*
X25995714Y-17260143D01*
X25981428Y-17274429D01*
X25952857Y-17288714D01*
X25910000Y-17288714D01*
X26181428Y-17288714D02*
X26152857Y-17274429D01*
X26138571Y-17245857D01*
X26138571Y-16988714D01*
X26410000Y-17274429D02*
X26381428Y-17288714D01*
X26324286Y-17288714D01*
X26295714Y-17274429D01*
X26281428Y-17245857D01*
X26281428Y-17131572D01*
X26295714Y-17103000D01*
X26324286Y-17088714D01*
X26381428Y-17088714D01*
X26410000Y-17103000D01*
X26424286Y-17131572D01*
X26424286Y-17160143D01*
X26281428Y-17188714D01*
X26538571Y-17274429D02*
X26567143Y-17288714D01*
X26624286Y-17288714D01*
X26652857Y-17274429D01*
X26667143Y-17245857D01*
X26667143Y-17231572D01*
X26652857Y-17203000D01*
X26624286Y-17188714D01*
X26581428Y-17188714D01*
X26552857Y-17174429D01*
X26538571Y-17145857D01*
X26538571Y-17131572D01*
X26552857Y-17103000D01*
X26581428Y-17088714D01*
X26624286Y-17088714D01*
X26652857Y-17103000D01*
X26767143Y-17403000D02*
X26781428Y-17388714D01*
X26810000Y-17345857D01*
X26824286Y-17317286D01*
X26838571Y-17274429D01*
X26852857Y-17203000D01*
X26852857Y-17145857D01*
X26838571Y-17074429D01*
X26824286Y-17031572D01*
X26810000Y-17003000D01*
X26781428Y-16960143D01*
X26767143Y-16945857D01*
X19880000Y-17664000D02*
X19995000Y-17549000D01*
X19880000Y-17434000D01*
X19765000Y-17549000D01*
X19880000Y-17664000D01*
X20267143Y-17413286D02*
X20281428Y-17399000D01*
X20310000Y-17384714D01*
X20381428Y-17384714D01*
X20410000Y-17399000D01*
X20424286Y-17413286D01*
X20438571Y-17441857D01*
X20438571Y-17470429D01*
X20424286Y-17513286D01*
X20252857Y-17684714D01*
X20438571Y-17684714D01*
X20567143Y-17656143D02*
X20581428Y-17670429D01*
X20567143Y-17684714D01*
X20552857Y-17670429D01*
X20567143Y-17656143D01*
X20567143Y-17684714D01*
X20681428Y-17384714D02*
X20867143Y-17384714D01*
X20767143Y-17499000D01*
X20810000Y-17499000D01*
X20838571Y-17513286D01*
X20852857Y-17527572D01*
X20867143Y-17556143D01*
X20867143Y-17627572D01*
X20852857Y-17656143D01*
X20838571Y-17670429D01*
X20810000Y-17684714D01*
X20724286Y-17684714D01*
X20695714Y-17670429D01*
X20681428Y-17656143D01*
X21052857Y-17384714D02*
X21081428Y-17384714D01*
X21110000Y-17399000D01*
X21124286Y-17413286D01*
X21138571Y-17441857D01*
X21152857Y-17499000D01*
X21152857Y-17570429D01*
X21138571Y-17627572D01*
X21124286Y-17656143D01*
X21110000Y-17670429D01*
X21081428Y-17684714D01*
X21052857Y-17684714D01*
X21024286Y-17670429D01*
X21010000Y-17656143D01*
X20995714Y-17627572D01*
X20981428Y-17570429D01*
X20981428Y-17499000D01*
X20995714Y-17441857D01*
X21010000Y-17413286D01*
X21024286Y-17399000D01*
X21052857Y-17384714D01*
X21281428Y-17684714D02*
X21281428Y-17484714D01*
X21281428Y-17513286D02*
X21295714Y-17499000D01*
X21324286Y-17484714D01*
X21367143Y-17484714D01*
X21395714Y-17499000D01*
X21410000Y-17527572D01*
X21410000Y-17684714D01*
X21410000Y-17527572D02*
X21424286Y-17499000D01*
X21452857Y-17484714D01*
X21495714Y-17484714D01*
X21524286Y-17499000D01*
X21538571Y-17527572D01*
X21538571Y-17684714D01*
X21681428Y-17684714D02*
X21681428Y-17484714D01*
X21681428Y-17513286D02*
X21695714Y-17499000D01*
X21724286Y-17484714D01*
X21767143Y-17484714D01*
X21795714Y-17499000D01*
X21810000Y-17527572D01*
X21810000Y-17684714D01*
X21810000Y-17527572D02*
X21824286Y-17499000D01*
X21852857Y-17484714D01*
X21895714Y-17484714D01*
X21924286Y-17499000D01*
X21938571Y-17527572D01*
X21938571Y-17684714D01*
X22524286Y-17370429D02*
X22267143Y-17756143D01*
X22910000Y-17384714D02*
X22938571Y-17384714D01*
X22967143Y-17399000D01*
X22981428Y-17413286D01*
X22995714Y-17441857D01*
X23010000Y-17499000D01*
X23010000Y-17570429D01*
X22995714Y-17627572D01*
X22981428Y-17656143D01*
X22967143Y-17670429D01*
X22938571Y-17684714D01*
X22910000Y-17684714D01*
X22881428Y-17670429D01*
X22867143Y-17656143D01*
X22852857Y-17627572D01*
X22838571Y-17570429D01*
X22838571Y-17499000D01*
X22852857Y-17441857D01*
X22867143Y-17413286D01*
X22881428Y-17399000D01*
X22910000Y-17384714D01*
X23138571Y-17656143D02*
X23152857Y-17670429D01*
X23138571Y-17684714D01*
X23124286Y-17670429D01*
X23138571Y-17656143D01*
X23138571Y-17684714D01*
X23338571Y-17384714D02*
X23367143Y-17384714D01*
X23395714Y-17399000D01*
X23410000Y-17413286D01*
X23424286Y-17441857D01*
X23438571Y-17499000D01*
X23438571Y-17570429D01*
X23424286Y-17627572D01*
X23410000Y-17656143D01*
X23395714Y-17670429D01*
X23367143Y-17684714D01*
X23338571Y-17684714D01*
X23310000Y-17670429D01*
X23295714Y-17656143D01*
X23281428Y-17627572D01*
X23267143Y-17570429D01*
X23267143Y-17499000D01*
X23281428Y-17441857D01*
X23295714Y-17413286D01*
X23310000Y-17399000D01*
X23338571Y-17384714D01*
X23581428Y-17684714D02*
X23638571Y-17684714D01*
X23667143Y-17670429D01*
X23681428Y-17656143D01*
X23710000Y-17613286D01*
X23724286Y-17556143D01*
X23724286Y-17441857D01*
X23710000Y-17413286D01*
X23695714Y-17399000D01*
X23667143Y-17384714D01*
X23610000Y-17384714D01*
X23581428Y-17399000D01*
X23567143Y-17413286D01*
X23552857Y-17441857D01*
X23552857Y-17513286D01*
X23567143Y-17541857D01*
X23581428Y-17556143D01*
X23610000Y-17570429D01*
X23667143Y-17570429D01*
X23695714Y-17556143D01*
X23710000Y-17541857D01*
X23724286Y-17513286D01*
X24010000Y-17684714D02*
X23838571Y-17684714D01*
X23924286Y-17684714D02*
X23924286Y-17384714D01*
X23895714Y-17427572D01*
X23867143Y-17456143D01*
X23838571Y-17470429D01*
X24124286Y-17384714D02*
X24124286Y-17441857D01*
X24238571Y-17384714D02*
X24238571Y-17441857D01*
X24681428Y-17799000D02*
X24667143Y-17784714D01*
X24638571Y-17741857D01*
X24624286Y-17713286D01*
X24610000Y-17670429D01*
X24595714Y-17599000D01*
X24595714Y-17541857D01*
X24610000Y-17470429D01*
X24624286Y-17427572D01*
X24638571Y-17399000D01*
X24667143Y-17356143D01*
X24681428Y-17341857D01*
X24781428Y-17413286D02*
X24795714Y-17399000D01*
X24824286Y-17384714D01*
X24895714Y-17384714D01*
X24924286Y-17399000D01*
X24938571Y-17413286D01*
X24952857Y-17441857D01*
X24952857Y-17470429D01*
X24938571Y-17513286D01*
X24767143Y-17684714D01*
X24952857Y-17684714D01*
X25310000Y-17684714D02*
X25310000Y-17384714D01*
X25438571Y-17684714D02*
X25438571Y-17527572D01*
X25424286Y-17499000D01*
X25395714Y-17484714D01*
X25352857Y-17484714D01*
X25324286Y-17499000D01*
X25310000Y-17513286D01*
X25624286Y-17684714D02*
X25595714Y-17670429D01*
X25581428Y-17656143D01*
X25567143Y-17627572D01*
X25567143Y-17541857D01*
X25581428Y-17513286D01*
X25595714Y-17499000D01*
X25624286Y-17484714D01*
X25667143Y-17484714D01*
X25695714Y-17499000D01*
X25710000Y-17513286D01*
X25724286Y-17541857D01*
X25724286Y-17627572D01*
X25710000Y-17656143D01*
X25695714Y-17670429D01*
X25667143Y-17684714D01*
X25624286Y-17684714D01*
X25895714Y-17684714D02*
X25867143Y-17670429D01*
X25852857Y-17641857D01*
X25852857Y-17384714D01*
X26124286Y-17670429D02*
X26095714Y-17684714D01*
X26038571Y-17684714D01*
X26010000Y-17670429D01*
X25995714Y-17641857D01*
X25995714Y-17527572D01*
X26010000Y-17499000D01*
X26038571Y-17484714D01*
X26095714Y-17484714D01*
X26124286Y-17499000D01*
X26138571Y-17527572D01*
X26138571Y-17556143D01*
X25995714Y-17584714D01*
X26252857Y-17670429D02*
X26281428Y-17684714D01*
X26338571Y-17684714D01*
X26367143Y-17670429D01*
X26381428Y-17641857D01*
X26381428Y-17627572D01*
X26367143Y-17599000D01*
X26338571Y-17584714D01*
X26295714Y-17584714D01*
X26267143Y-17570429D01*
X26252857Y-17541857D01*
X26252857Y-17527572D01*
X26267143Y-17499000D01*
X26295714Y-17484714D01*
X26338571Y-17484714D01*
X26367143Y-17499000D01*
X26481428Y-17799000D02*
X26495714Y-17784714D01*
X26524286Y-17741857D01*
X26538571Y-17713286D01*
X26552857Y-17670429D01*
X26567143Y-17599000D01*
X26567143Y-17541857D01*
X26552857Y-17470429D01*
X26538571Y-17427572D01*
X26524286Y-17399000D01*
X26495714Y-17356143D01*
X26481428Y-17341857D01*
M02*
